<?xml version="1.0" encoding="utf-8"?>
<!-- Generator: Adobe Illustrator 24.0.1, SVG Export Plug-In . SVG Version: 6.00 Build 0)  -->
<svg version="1.1" id="Layer_1" xmlns="http://www.w3.org/2000/svg" xmlns:xlink="http://www.w3.org/1999/xlink" x="0px" y="0px"
	 viewBox="0 0 371.82 220.97" style="enable-background:new 0 0 371.82 220.97;" xml:space="preserve">
<style type="text/css">
	.st0{fill:#213C62;}
	.st1{opacity:0.79;}
	.st2{fill:#0AA5DF;}
	.st3{fill:none;stroke:#FFFFFF;stroke-width:7;stroke-miterlimit:10;}
	.st4{fill:none;}
</style>
<g>
	<path class="st0" d="M286.99,7.25l0.1,39.96c0,0,48.93-2.6,48.93,30.49c0,32.5-48.93,29.19-48.93,29.19l0.06,39.87
		c0.61,0,84.81,2.8,84.69-71.76C371.71,4.24,287.6,7.25,286.99,7.25"/>
	<path class="st0" d="M240.05,7.24h38.38l0,206.81h-55.86L132.67,69.43l4.73,0.98c-0.34,0-0.33,46.07-0.33,46.07v97.56H98.69V7.24
		h53.23l88.39,142.75"/>
	<g class="st1">
		<g>
			<g>
				<polygon class="st2" points="151.74,217.47 111.89,149.2 71.87,217.47 4.92,217.47 73.91,108.23 8.34,3.5 73.73,3.5 
					111.91,66.72 148.92,3.5 215.81,3.5 151.01,108.27 217.28,217.47 				"/>
				<polygon class="st3" points="153.25,217.47 113.4,149.2 73.38,217.47 6.42,217.47 76.92,108.23 9.85,3.5 75.24,3.5 
					113.42,66.72 150.42,3.5 217.32,3.5 152.51,108.27 220.3,217.47 				"/>
				<polyline class="st4" points="0.88,220.55 224.22,220.55 224.22,0.41 				"/>
			</g>
		</g>
	</g>
</g>
</svg>
